<svg xmlns="http://www.w3.org/2000/svg"  width="24" height="23" viewBox="0 0 24 23"><path fill="#f7931e" fill-rule="evenodd" d="M9 6h1V5H7v.8L8 6v3h1V6zm2 .02h-1v3h1v-3zm1.9 1.4l.04-.66V4.93H12v4.1h.86v-.8h.86l.85.8h.86l-1.46-1.66L15 7l-1-1-.7.98-.4.45zM17 5h-.98v4H17V5zm4 3.95V7.02a.88.88 0 0 0-.36-.78A1.78 1.78 0 0 0 19.6 6a3.08 3.08 0 0 0-1.28.25l.3.54a2.7 2.7 0 0 1 .94-.3.43.43 0 0 1 .52.4V7h-.58a2.43 2.43 0 0 0-1.12.25.73.73 0 0 0-.38.7.85.85 0 0 0 .3.7 1.13 1.13 0 0 0 .8.22 1.75 1.75 0 0 0 .64-.1 1.32 1.32 0 0 0 .47-.37l.2.4h.6zm-.9-1.1a.52.52 0 0 1-.2.42.77.77 0 0 1-.5.16q-.45 0-.45-.34a.38.38 0 0 1 .2-.4 1.28 1.28 0 0 1 .6-.1h.34v.2zm-7.05 6.22h.93v1a3.35 3.35 0 0 1-.66.08 1.13 1.13 0 0 1-.95-.42 1.94 1.94 0 0 1-.32-1.2 1.74 1.74 0 0 1 .4-1.22 1.37 1.37 0 0 1 1.08-.4 2.46 2.46 0 0 1 1.1.3l.35-.8a3.63 3.63 0 0 0-1.45-.3 2.57 2.57 0 0 0-1.87.7 2.45 2.45 0 0 0-.68 1.84 2.7 2.7 0 0 0 .6 1.87 2.15 2.15 0 0 0 1.67.66 5.8 5.8 0 0 0 .85-.06 5.46 5.46 0 0 0 .9-.2v-2.6h-1.95v.84zm4.94-1.1a1 1 0 0 1 .1.6h-1.2a1.1 1.1 0 0 1 .2-.6.52.52 0 0 1 .4-.23.54.54 0 0 1 .4.22zm.3 2.97a1.87 1.87 0 0 0 .5-.2v-.82a2.5 2.5 0 0 1-.6.23 2.06 2.06 0 0 1-.6.07.72.72 0 0 1-.6-.25 1.13 1.13 0 0 1-.2-.7H19v-.52a1.98 1.98 0 0 0-.4-1.3 1.3 1.3 0 0 0-1.06-.46 1.34 1.34 0 0 0-1.13.5A2.43 2.43 0 0 0 16 14a2.2 2.2 0 0 0 .45 1.48 1.53 1.53 0 0 0 1.23.5 2.64 2.64 0 0 0 .64-.06zM21 12h-1v4h.98v-4zM5.84 15.7L8 14.3 9 20l-6-1.9 1.96-1.53L3 15.25 4.06 14zm-1.48-4.54C2.12 11.16 0 14.6 0 17.1A6.2 6.2 0 0 0 5.82 23c4.07 0 6.5-4.18 6.5-4.18a1.05 1.05 0 0 0 1.2.7c6.83 0 10.48-4.85 10.48-9.76A10.05 10.05 0 0 0 13.7 0C8.75 0 3.63 2.86 3.63 9.06c0 1.98.8 2.1.72 2.1z"/></svg>
